<svg xmlns="http://www.w3.org/2000/svg" width="517.34" height="635.978" viewBox="0 0 517.34 635.978">
  <path id="Path_21" data-name="Path 21" d="M200.94,242.462q-17.99,7.78-41.815,11.183a314.2,314.2,0,0,1-44.246,3.4q-66.126,0-103.565-34.522t-37.439-106q0-72.933,39.384-109.157T124.117-28.85q34.036,0,70.988,9.238,0,9.724-1.945,28.93T189.271,36.3H158.639q-33.549,0-52.755,1.216t-23.1,4.619Q75.5,48.945,71.605,69.61a214.284,214.284,0,0,0-3.89,39.627q0,33.063,8.266,50.81t20.908,23.582q12.156,5.835,40.356,5.835,22.366,0,58.347-3.89ZM491.215,251.7h-91.9l-16.532-70.016q-.972-3.89-3.16-13.371t-5.105-14.1a13.7,13.7,0,0,0-8.266-6.078q-13.614.486-39.87.486V251.7h-87.52V-23.015q58.833-4.376,109.886-4.376,46.191,0,74.878,7.536T466.66,5.915Q481,24.148,481,55.753q0,29.66-13.614,46.434t-43.76,20.178v2.917q17.018,1.459,28.444,10.94A45.857,45.857,0,0,1,467.39,160.29ZM326.386,93.678q4.376.486,17.018.486,37.439,0,43.76-6.321Q393,82.008,393,60.615q0-19.935-10.454-27.228t-34.279-7.293q-5.348,0-21.88.972ZM-16.157,324.633H185.624V382.98H71.362v50.567h96.272v52.512H71.362v56.4H185.138v59.319h-201.3Zm434.2,123.986q31.118,14.1,45.219,32.82t14.1,44.489q0,39.384-33.792,60.291t-84.359,20.908q-50.081,0-81.442-17.747T246.4,536.139q0-19.935,14.83-39.384t42.058-31.6q-23.339-13.614-35.737-32.82t-12.4-37.682q0-36.467,31.118-54.943T363.1,321.229q102.593,0,102.593,67.1Q465.688,419.446,418.038,448.619Zm-54.457-80.227q-14.1,0-21.151,6.564t-7.05,20.178q0,12.156,10.454,20.178t28.444,15.316Q398.1,414.1,398.1,396.594q0-14.587-8.509-21.394T363.581,368.393Zm-3.4,192.057a36.224,36.224,0,0,0,22.852-7.536q9.724-7.536,9.724-21.151a27.793,27.793,0,0,0-9.481-21.637q-9.481-8.509-31.361-19.206-13.128,9.238-20.664,18.963a34.81,34.81,0,0,0-7.536,21.88q0,13.128,11.426,20.908A43.563,43.563,0,0,0,360.178,560.45Z" transform="translate(26.125 28.85)" fill="#fff"/>
</svg>
